<svg height="512" viewBox="0 0 60 60" width="512" xmlns="http://www.w3.org/2000/svg"><g id="Page-1" fill="none" fill-rule="evenodd"><g id="020---Quest-Map" fill-rule="nonzero"><g id="Icons" transform="translate(1 1)"><path id="Shape" d="m58 40c0 3.3137085-2.6862915 6-6 6h-45.75c-3.30589202-.0471453-6.06177615 2.519134-6.25 5.82v-33.82c0-3.3137085 2.6862915-6 6-6h40v28c.0000001-3.3137084 2.6862916-5.9999998 6-5.9999998s5.9999999 2.6862914 6 5.9999998z" fill="#e8edfc"/><path id="Shape" d="m46 34.811v-22.811h-3v28c.0025531-2.1410378 1.1458047-4.1184819 3-5.189z" fill="#cad9fc"/><path id="Shape" d="m52 34c-.5064496.0029108-1.0104803.0701149-1.5.2 2.907338.7698415 4.7955388 3.5732036 4.416277 6.5567301-.3792619 2.9835266-2.9087951 5.2253123-5.916277 5.2432699h3c3.3137085 0 6-2.6862915 6-6s-2.6862915-6-6-6z" fill="#cad9fc"/><path id="Shape" d="m58 6v34c-.0000001-3.3137084-2.6862916-5.9999998-6-5.9999998s-5.9999999 2.6862914-6 5.9999998v-34c0-3.3137085 2.6862915-6 6-6s6 2.6862915 6 6z" fill="#e8edfc"/><path id="Shape" d="m52 0c-.5064496.00291083-1.0104803.07011491-1.5.2 2.6456983.68311274 4.4956841 3.06753882 4.5 5.8v28.811c1.8541953 1.0705181 2.9974469 3.0479622 3 5.189v-34c0-3.3137085-2.6862915-6-6-6z" fill="#cad9fc"/><path id="Shape" d="m10 46v11c0 .5522847-.44771525 1-1 1h-3c-3.3137085 0-6-2.6862915-6-6v-.18c.18822385-3.300866 2.94410798-5.8671453 6.25-5.82z" fill="#a4c2f7"/><path id="Shape" d="m7 46v11c0 .5522847-.44771525 1-1 1h3c.55228475 0 1-.4477153 1-1v-11z" fill="#7facfa"/><rect id="Rectangle-path" fill="#a4c2f7" height="12" rx="1" width="12" x="30" y="16"/></g><g id="Icons_copy_2" fill="#fff" transform="translate(1 13)"><path id="Shape" d="m6 46h3c-3.3137085 0-6-2.6862915-6-6v-34c0-3.3137085 2.6862915-6 6-6h-3c-3.3137085 0-6 2.6862915-6 6v34c0 3.3137085 2.6862915 6 6 6z"/></g><g id="Icons_copy"><path id="Rectangle-path" d="m0 19h2v8h-2z" fill="#fff"/><g fill="#428dff"><circle id="Oval" cx="1" cy="23" r="1"/><path id="Shape" d="m53 0c-3.8641657.00440864-6.9955914 3.13583434-7 7v5h-39c-3.86416566.0044086-6.99559136 3.1358343-7 7 0 .5522847.44771525 1 1 1s1-.4477153 1-1c.00330612-2.7600532 2.23994685-4.9966939 5-5h39v27c0 .5522847.4477153 1 1 1s1-.4477153 1-1c0-2.7614237 2.2385763-5 5-5s5 2.2385763 5 5-2.2385763 5-5 5h-45.748c-1.97595611.0017743-3.86834811.7973572-5.252 2.208v-21.208c0-.5522847-.44771525-1-1-1s-1 .4477153-1 1v26h.007c-.00318814 1.8562778.73232448 3.6375465 2.04425626 4.9507915 1.31193177 1.313245 3.09246367 2.0505394 4.94874374 2.0492085h3c1.1045695 0 2-.8954305 2-2v-10h41c3.8641657-.0044086 6.9955914-3.1358343 7-7v-34c-.0044086-3.86416566-3.1358343-6.99559136-7-7zm-43 58.0000006-3-.0000006c-1.35338003.0006505-2.64921558-.5473573-3.59148328-1.5188353s-1.45047166-2.283435-1.40851672-3.6361647c.17337854-2.7596025 2.48739592-4.8942967 5.252-4.845h2.748zm48-21.9000006c-1.3153928-1.3460529-3.1179488-2.104889-5-2.104889s-3.6846072.7588361-5 2.104889v-29.1c0-2.76142375 2.2385763-5 5-5s5 2.23857625 5 5z"/><path id="Shape" d="m38.293 25.707c.3923789.3789722 1.0160848.3735524 1.4018186-.0121814s.3911536-1.0094397.0121814-1.4018186l-1.293-1.293 1.293-1.293c.3789722-.3923789.3735524-1.0160848-.0121814-1.4018186s-1.0094397-.3911536-1.4018186-.0121814l-1.293 1.293-1.293-1.293c-.3923789-.3789722-1.0160848-.3735524-1.4018186.0121814s-.3911536 1.0094397-.0121814 1.4018186l1.293 1.293-1.293 1.293c-.2599566.2510745-.3642126.6228779-.2726972.9725073.0915155.3496295.3645604.6226744.7141899.7141899.3496294.0915154.7214328-.0127406.9725073-.2726972l1.293-1.293z"/><path id="Shape" d="m38 30h4c1.1045695 0 2-.8954305 2-2v-10c0-1.1045695-.8954305-2-2-2h-10c-1.1045695 0-2 .8954305-2 2v10c0 1.1045695.8954305 2 2 2h4v1c0 .5522847.4477153 1 1 1s1-.4477153 1-1zm-6-12h10v10h-10z"/><path id="Shape" d="m38 35c0-.5522847-.4477153-1-1-1s-1 .4477153-1 1v2c0 .5522847.4477153 1 1 1s1-.4477153 1-1z"/><path id="Shape" d="m37 40c-.5522847 0-1 .4477153-1 1s-.4477153 1-1 1-1 .4477153-1 1 .4477153 1 1 1c1.6568542 0 3-1.3431458 3-3 0-.5522847-.4477153-1-1-1z"/><path id="Shape" d="m25 44c.5522847 0 1-.4477153 1-1s-.4477153-1-1-1-1-.4477153-1-1-.4477153-1-1-1-1 .4477153-1 1c0 1.6568542 1.3431458 3 3 3z"/><path id="Shape" d="m28 43c0 .5522847.4477153 1 1 1h2c.5522847 0 1-.4477153 1-1s-.4477153-1-1-1h-2c-.5522847 0-1 .4477153-1 1z"/><path id="Shape" d="m22 37c0 .5522847.4477153 1 1 1s1-.4477153 1-1v-2c0-.5522847-.4477153-1-1-1s-1 .4477153-1 1z"/><path id="Shape" d="m22 31c0 .5522847.4477153 1 1 1s1-.4477153 1-1v-2c0-.5522847-.4477153-1-1-1s-1 .4477153-1 1z"/><path id="Shape" d="m23 26c.5522847 0 1-.4477153 1-1v-2c0-.5522847-.4477153-1-1-1s-1 .4477153-1 1v2c0 .5522847.4477153 1 1 1z"/><path id="Shape" d="m21 16c-.5522847 0-1 .4477153-1 1s.4477153 1 1 1 1 .4477153 1 1 .4477153 1 1 1 1-.4477153 1-1c0-1.6568542-1.3431458-3-3-3z"/><path id="Shape" d="m15 20c.5522847 0 1-.4477153 1-1s.4477153-1 1-1 1-.4477153 1-1-.4477153-1-1-1c-1.6568542 0-3 1.3431458-3 3 0 .5522847.4477153 1 1 1z"/><path id="Shape" d="m14 25c0 .5522847.4477153 1 1 1s1-.4477153 1-1v-2c0-.5522847-.4477153-1-1-1s-1 .4477153-1 1z"/><path id="Shape" d="m13 30c-.5522847 0-1 .4477153-1 1s.4477153 1 1 1c1.6568542 0 3-1.3431458 3-3 0-.5522847-.4477153-1-1-1s-1 .4477153-1 1-.4477153 1-1 1z"/><path id="Shape" d="m9 32c.55228475 0 1-.4477153 1-1s-.44771525-1-1-1h-2c-.55228475 0-1 .4477153-1 1s.44771525 1 1 1z"/></g></g></g></g></svg>